<svg id="icon-cog" xmlns="http://www.w3.org/2000/svg" width="86" height="86" viewBox="0 0 86 86">
  <path id="Shape" d="M62.083,56.2,65.209,58l.089-.181A36.227,36.227,0,0,0,72,36.681,36.088,36.088,0,0,0,61.636,10.751,35.461,35.461,0,0,0,36.089,0,36.31,36.31,0,0,0,0,36.5,36.31,36.31,0,0,0,36.089,73,32.524,32.524,0,0,0,46,71.554l.179-.09-.715-3.614-.268.09a32.675,32.675,0,0,1-9.29,1.446,32.8,32.8,0,0,1,0-65.592,32.668,32.668,0,0,1,32.426,32.8,33.3,33.3,0,0,1-6.253,19.425Z" transform="translate(7 6)" fill="#404040"/>
  <path id="Shape-2" data-name="Shape" d="M73.582,12.681A42.468,42.468,0,0,0,43.131,0a40.8,40.8,0,0,0-11.52,1.607h-.179l.625,3.3h.268A40.974,40.974,0,0,1,43.131,3.394,39.7,39.7,0,1,1,3.393,42.955,39.215,39.215,0,0,1,10.716,20l.179-.179-2.947-1.7-.089.179A42.977,42.977,0,1,0,85.995,43.045,41.806,41.806,0,0,0,73.582,12.681Z" fill="#404040"/>
  <path id="Shape-3" data-name="Shape" d="M17.264,39a1,1,0,0,1-.984-.988V35.226a15.838,15.838,0,0,1-5.368-2.246L8.5,35.405a1.083,1.083,0,0,1-1.431,0L3.578,31.9a1.094,1.094,0,0,1,0-1.437l2.5-2.516a14.893,14.893,0,0,1-1.967-4.763H.984A1,1,0,0,1,0,22.2V17.343a1,1,0,0,1,.984-.988H4.115a15.525,15.525,0,0,1,2.237-5.3l-2.684-2.7a1.1,1.1,0,0,1,0-1.438l3.488-3.5a.97.97,0,0,1,1.342,0L11.271,6.2A14.421,14.421,0,0,1,16.1,4.224V.988A1,1,0,0,1,17.085,0h4.83A1,1,0,0,1,22.9.988V4.314A17.721,17.721,0,0,1,27.551,6.29l2.594-2.605a.969.969,0,0,1,1.342,0l3.488,3.5a1.1,1.1,0,0,1,0,1.437l-2.5,2.516a17.8,17.8,0,0,1,2.146,5.212h3.131A1.545,1.545,0,0,1,39,17.343V22.2a1,1,0,0,1-.984.988H34.885a16.694,16.694,0,0,1-1.967,4.853l2.146,2.156a1.1,1.1,0,0,1,0,1.438l-3.4,3.415a1.083,1.083,0,0,1-1.431,0L28.176,32.98a16.175,16.175,0,0,1-5.1,2.156v2.875a1,1,0,0,1-.984.988Z" transform="translate(24 24)" fill="#404040"/>
</svg>
