<svg id="icon-chart" xmlns="http://www.w3.org/2000/svg" width="84" height="84" viewBox="0 0 84 84">
  <path id="Shape" d="M11.484,84a1.877,1.877,0,0,0,1.877-1.877V76.865H82.123a1.877,1.877,0,0,0,0-3.754H13.361V1.877a1.877,1.877,0,0,0-3.754,0V73.111H1.877a1.877,1.877,0,0,0,0,3.754h7.73v5.258A1.877,1.877,0,0,0,11.484,84Z" fill="#404040"/>
  <path id="Shape-2" data-name="Shape" d="M3.394,68.427,17.879,54.181l9.42,9.867a1.994,1.994,0,0,0,3.383-.915L41.015,20.195,52.648,30.678A1.993,1.993,0,0,0,55.808,30L67.829,2.811A2,2,0,1,0,64.18,1.19L53.272,25.858,41.195,14.974a1.994,1.994,0,0,0-3.275,1.019L27.657,58.635,19.365,49.95a2,2,0,0,0-1.411-.618,1.83,1.83,0,0,0-1.43.573L.6,65.571a2,2,0,1,0,2.8,2.856Z" transform="translate(14 7)" fill="#404040"/>
</svg>
