<svg id="icon-paint" xmlns="http://www.w3.org/2000/svg" width="84" height="86" viewBox="0 0 84 86">
  <path id="Shape" d="M.635,0C.487.518.177,1.485,0,2l.939-.8C.845.894.719.293.635,0Z" transform="translate(14)"/>
  <path id="Shape-2" data-name="Shape" d="M4.61,0,1.45,3.117C.992,4.128.509,5.091,0,6L5,1.081C4.866.728,4.737.366,4.61,0Z" transform="translate(11 4)"/>
  <path id="Shape-3" data-name="Shape" d="M14.573,0,2.766,11.845A46.066,46.066,0,0,0,0,16L15,.95C14.853.643,14.715.318,14.573,0Z" transform="translate(2 7)"/>
  <path id="Shape-4" data-name="Shape" d="M18.45,0,.333,18.165A15.676,15.676,0,0,0,0,20L19,.983C18.813.664,18.631.331,18.45,0Z" transform="translate(0 9)"/>
  <path id="Shape-5" data-name="Shape" d="M20.413,0,0,19.687c.025.439.071.878.132,1.313L21,.843C20.8.562,20.607.29,20.413,0Z" transform="translate(0 12)"/>
  <path id="Shape-6" data-name="Shape" d="M21.379,0,0,20.928c.105.361.219.72.35,1.072L22,.836C21.792.557,21.588.285,21.379,0Z" transform="translate(0 15)"/>
  <path id="Shape-7" data-name="Shape" d="M22.389,0,0,22.11c.162.3.337.6.52.89L23,.827C22.8.554,22.6.276,22.389,0Z" transform="translate(2 17)"/>
  <path id="Shape-8" data-name="Shape" d="M22.413,0,0,22.249c.221.26.458.507.7.751L23,.827c-.19-.275-.39-.55-.587-.827Z" transform="translate(3 20)"/>
  <path id="Shape-9" data-name="Shape" d="M21.5,0,0,21.445c.264.2.55.374.831.555L22,.908C21.833.6,21.677.3,21.5,0Z" transform="translate(5 22)"/>
  <path id="Shape-10" data-name="Shape" d="M20.586,0,0,20.594c.338.151.7.28,1.053.406L21,1.042C20.877.689,20.731.344,20.586,0Z" transform="translate(8 25)"/>
  <path id="Shape-11" data-name="Shape" d="M17.825,0,0,17.806c.415.078.836.148,1.272.194L18,1.264C17.959.834,17.9.412,17.825,0Z" transform="translate(11 28)"/>
  <path id="Shape-12" data-name="Shape" d="M14,0,0,14a15.254,15.254,0,0,0,1.6-.174L13.76,1.668A15.886,15.886,0,0,0,14,0Z" transform="translate(16 32)"/>
  <path id="Shape-13" data-name="Shape" d="M7,0,0,7A16.48,16.48,0,0,0,7,0Z" transform="translate(21 38)"/>
  <path id="Shape-14" data-name="Shape" d="M3.743,41.253A15.407,15.407,0,0,1,0,30.866C.063,25.387,2.9,21.618,5.992,17.5,9.615,12.686,12.617,8.447,15,0c2.382,8.447,5.385,12.686,9.007,17.5,3.1,4.117,5.93,7.886,5.991,13.365a15.4,15.4,0,0,1-3.742,10.387A14.614,14.614,0,0,1,15,46,14.615,14.615,0,0,1,3.743,41.253Z" transform="translate(27 40)"/>
  <path id="Shape-15" data-name="Shape" d="M14.992,0C11.247,15.333.125,19.508,0,30.667-.084,38.333,5.071,46,14.992,46,24.177,46,30,38.333,30,30.667,30,19.75,18.743,15.333,14.992,0Z" transform="translate(54)"/>
</svg>
