<svg id="icon-laptop" xmlns="http://www.w3.org/2000/svg" width="149" height="85" viewBox="0 0 149 85">
  <path id="Shape" d="M51.994,80c-.6,0-.957-.313-.957-.447a1.066,1.066,0,0,0-1.066-1.066H0V4.888A4.9,4.9,0,0,1,4.9,0H116.1A4.9,4.9,0,0,1,121,4.888v73.6H71.03a1.067,1.067,0,0,0-1.068,1.066c0,.134-.362.447-.956.447Z" transform="translate(15)" fill="#404040"/>
  <path id="Shape-2" data-name="Shape" d="M141.461,5a13.638,13.638,0,0,0,7.5-1.916L149,3.078V0H85.015A1.832,1.832,0,0,1,83,1.538H66.041A1.833,1.833,0,0,1,64.024,0H.039V3.078L0,3.084A13.647,13.647,0,0,0,7.5,5Z" transform="translate(0 80)" fill="#404040"/>
</svg>
